<svg width="117" height="78" viewBox="0 0 1000 667" fill="none" xmlns="http://www.w3.org/2000/svg">
<path d="M806.667 251.667C777.917 107.917 651.667 0 500 0C379.583 0 275 68.3334 222.917 168.333C97.5 181.667 0 287.917 0 416.667C0 554.583 112.083 666.667 250 666.667H791.667C906.667 666.667 1000 573.333 1000 458.333C1000 348.333 914.583 259.167 806.667 251.667Z" fill="#C5E3FF"/>
<path d="M277.282 326.33V310.92H349.871V326.33H322.811V399.306H304.34V326.33H277.282ZM381.816 400.601C375.114 400.601 369.316 399.177 364.423 396.326C359.562 393.451 355.809 389.451 353.16 384.33C350.514 379.181 349.191 373.212 349.191 366.42C349.191 359.573 350.514 353.59 353.16 348.469C355.809 343.316 359.562 339.319 364.423 336.469C369.316 333.594 375.114 332.156 381.816 332.156C388.521 332.156 394.302 333.594 399.167 336.469C404.055 339.319 407.826 343.316 410.472 348.469C413.118 353.59 414.444 359.573 414.444 366.42C414.444 373.212 413.118 379.181 410.472 384.33C407.826 389.451 404.055 393.451 399.167 396.326C394.302 399.177 388.521 400.601 381.816 400.601ZM381.903 386.358C384.951 386.358 387.5 385.497 389.542 383.771C391.583 382.014 393.125 379.625 394.16 376.604C395.226 373.583 395.757 370.146 395.757 366.292C395.757 362.438 395.226 358.997 394.16 355.976C393.125 352.955 391.583 350.569 389.542 348.813C387.5 347.059 384.951 346.181 381.903 346.181C378.826 346.181 376.236 347.059 374.135 348.813C372.062 350.569 370.496 352.955 369.43 355.976C368.396 358.997 367.878 362.438 367.878 366.292C367.878 370.146 368.396 373.583 369.43 376.604C370.496 379.625 372.062 382.014 374.135 383.771C376.236 385.497 378.826 386.358 381.903 386.358ZM450.823 400.385C445.788 400.385 441.229 399.09 437.142 396.5C433.087 393.882 429.864 390.042 427.476 384.979C425.118 379.885 423.937 373.642 423.937 366.247C423.937 358.653 425.16 352.337 427.604 347.302C430.052 342.24 433.302 338.455 437.357 335.951C441.444 333.42 445.917 332.156 450.781 332.156C454.493 332.156 457.583 332.788 460.059 334.052C462.562 335.292 464.576 336.844 466.101 338.715C467.653 340.556 468.833 342.368 469.639 344.153H470.201V310.92H488.542V399.306H470.417V388.688H469.639C468.778 390.531 467.552 392.358 465.972 394.17C464.417 395.955 462.389 397.434 459.885 398.615C457.413 399.795 454.392 400.385 450.823 400.385ZM456.649 385.754C459.614 385.754 462.114 384.948 464.16 383.337C466.229 381.698 467.812 379.41 468.906 376.476C470.028 373.542 470.59 370.104 470.59 366.163C470.59 362.219 470.042 358.795 468.948 355.889C467.854 352.986 466.274 350.74 464.201 349.16C462.132 347.576 459.614 346.785 456.649 346.785C453.628 346.785 451.083 347.604 449.01 349.243C446.941 350.885 445.371 353.156 444.305 356.063C443.243 358.969 442.712 362.337 442.712 366.163C442.712 370.017 443.243 373.427 444.305 376.389C445.399 379.323 446.969 381.625 449.01 383.295C451.083 384.934 453.628 385.754 456.649 385.754ZM522.559 400.556C518.33 400.556 514.562 399.823 511.253 398.358C507.944 396.861 505.326 394.66 503.399 391.753C501.5 388.819 500.548 385.163 500.548 380.792C500.548 377.108 501.226 374.017 502.58 371.514C503.93 369.01 505.771 366.997 508.104 365.472C510.434 363.948 513.08 362.795 516.042 362.017C519.035 361.243 522.17 360.694 525.451 360.379C529.305 359.976 532.413 359.601 534.774 359.257C537.132 358.882 538.844 358.337 539.91 357.618C540.972 356.896 541.507 355.833 541.507 354.424V354.163C541.507 351.431 540.642 349.316 538.916 347.819C537.219 346.323 534.802 345.576 531.667 345.576C528.357 345.576 525.726 346.309 523.767 347.778C521.812 349.215 520.517 351.028 519.885 353.215L502.882 351.833C503.743 347.806 505.441 344.323 507.972 341.389C510.503 338.427 513.771 336.153 517.771 334.573C521.798 332.962 526.458 332.156 531.753 332.156C535.434 332.156 538.958 332.587 542.326 333.448C545.719 334.313 548.726 335.649 551.344 337.462C553.993 339.274 556.076 341.604 557.604 344.455C559.128 347.274 559.889 350.653 559.889 354.597V399.306H542.455V390.115H541.937C540.871 392.184 539.448 394.01 537.663 395.594C535.882 397.149 533.736 398.372 531.232 399.264C528.732 400.125 525.84 400.556 522.559 400.556ZM527.826 387.868C530.528 387.868 532.917 387.337 534.989 386.271C537.059 385.181 538.687 383.712 539.864 381.872C541.045 380.028 541.635 377.944 541.635 375.611V368.58C541.059 368.951 540.267 369.299 539.26 369.615C538.285 369.903 537.177 370.174 535.937 370.434C534.701 370.663 533.465 370.879 532.226 371.08C530.989 371.254 529.868 371.413 528.861 371.556C526.701 371.872 524.819 372.375 523.208 373.066C521.597 373.757 520.344 374.691 519.451 375.872C518.559 377.024 518.114 378.462 518.114 380.188C518.114 382.691 519.021 384.604 520.833 385.927C522.673 387.222 525.007 387.868 527.826 387.868ZM583.128 424.163C580.798 424.163 578.611 423.976 576.569 423.604C574.555 423.257 572.889 422.813 571.562 422.264L575.708 408.542C577.864 409.201 579.805 409.563 581.531 409.622C583.288 409.677 584.798 409.274 586.062 408.413C587.357 407.549 588.41 406.08 589.215 404.01L590.295 401.205L566.514 333.017H585.847L599.573 381.698H600.264L614.114 333.017H633.58L607.816 406.469C606.576 410.038 604.896 413.146 602.767 415.792C600.667 418.465 598.003 420.524 594.781 421.962C591.559 423.431 587.677 424.163 583.128 424.163ZM662.191 310.92V320.243C662.191 322.889 661.673 325.594 660.639 328.358C659.632 331.09 658.278 333.681 656.58 336.125C654.885 338.542 653.028 340.597 651.014 342.295L642.899 337.507C644.34 335.233 645.604 332.715 646.698 329.955C647.819 327.191 648.382 323.983 648.382 320.33V310.92H662.191ZM721.285 351.92L704.451 352.955C704.163 351.517 703.545 350.222 702.597 349.073C701.646 347.892 700.396 346.958 698.844 346.267C697.316 345.549 695.489 345.188 693.361 345.188C690.514 345.188 688.111 345.792 686.153 347C684.198 348.181 683.219 349.764 683.219 351.747C683.219 353.33 683.854 354.667 685.118 355.76C686.385 356.854 688.555 357.733 691.635 358.392L703.632 360.809C710.076 362.135 714.882 364.264 718.045 367.198C721.212 370.132 722.795 373.986 722.795 378.764C722.795 383.108 721.514 386.92 718.951 390.198C716.42 393.479 712.941 396.042 708.51 397.882C704.107 399.694 699.028 400.601 693.274 400.601C684.5 400.601 677.507 398.774 672.302 395.118C667.121 391.438 664.087 386.431 663.194 380.101L681.278 379.153C681.823 381.826 683.149 383.872 685.246 385.281C687.347 386.66 690.038 387.351 693.319 387.351C696.542 387.351 699.128 386.733 701.087 385.497C703.073 384.229 704.08 382.604 704.107 380.618C704.08 378.951 703.375 377.583 701.993 376.521C700.611 375.427 698.482 374.59 695.604 374.017L684.125 371.729C677.653 370.434 672.833 368.191 669.67 364.997C666.531 361.802 664.965 357.733 664.965 352.785C664.965 348.524 666.114 344.858 668.417 341.778C670.746 338.701 674.014 336.326 678.212 334.656C682.444 332.99 687.392 332.156 693.059 332.156C701.43 332.156 708.021 333.924 712.826 337.462C717.66 341 720.479 345.819 721.285 351.92ZM148.023 456.754H171.069L195.409 516.139H196.445L220.785 456.754H243.83V545.139H225.705V487.611H224.971L202.098 544.708H189.755L166.883 487.396H166.149V545.139H148.023V456.754ZM270.231 569.997C267.901 569.997 265.714 569.809 263.671 569.438C261.657 569.09 259.989 568.646 258.665 568.097L262.808 554.375C264.966 555.035 266.908 555.396 268.634 555.455C270.389 555.51 271.9 555.108 273.165 554.247C274.46 553.382 275.51 551.913 276.316 549.844L277.395 547.038L253.616 478.851H272.95L286.673 527.531H287.364L301.217 478.851H320.68L294.916 552.302C293.679 555.872 291.996 558.979 289.867 561.625C287.767 564.299 285.105 566.358 281.883 567.795C278.661 569.264 274.777 569.997 270.231 569.997ZM378.455 545.139L353.167 456.754H373.58L388.208 518.167H388.944L405.083 456.754H422.562L438.66 518.295H439.434L454.066 456.754H474.479L449.187 545.139H430.976L414.146 487.354H413.455L396.667 545.139H378.455ZM507.222 546.434C500.406 546.434 494.535 545.052 489.614 542.292C484.726 539.5 480.955 535.559 478.309 530.465C475.663 525.344 474.337 519.288 474.337 512.299C474.337 505.479 475.663 499.493 478.309 494.344C480.955 489.194 484.68 485.181 489.486 482.302C494.319 479.427 499.986 477.99 506.489 477.99C510.861 477.99 514.934 478.695 518.701 480.104C522.5 481.483 525.809 483.57 528.628 486.361C531.476 489.149 533.691 492.66 535.274 496.889C536.857 501.09 537.649 506.01 537.649 511.649V516.698H481.673V505.306H520.344C520.344 502.66 519.767 500.313 518.618 498.271C517.465 496.229 515.868 494.632 513.826 493.483C511.812 492.302 509.469 491.712 506.791 491.712C504 491.712 501.528 492.358 499.368 493.653C497.239 494.92 495.569 496.632 494.361 498.788C493.153 500.917 492.535 503.292 492.507 505.91V516.743C492.507 520.021 493.111 522.858 494.319 525.243C495.555 527.632 497.298 529.472 499.542 530.767C501.785 532.063 504.448 532.708 507.524 532.708C509.569 532.708 511.437 532.424 513.135 531.847C514.833 531.271 516.285 530.41 517.493 529.257C518.701 528.108 519.625 526.698 520.257 525.028L537.26 526.149C536.396 530.236 534.628 533.802 531.951 536.854C529.305 539.875 525.882 542.233 521.68 543.931C517.51 545.601 512.691 546.434 507.222 546.434ZM568.548 546.389C564.319 546.389 560.548 545.656 557.239 544.191C553.934 542.695 551.316 540.493 549.385 537.587C547.489 534.653 546.538 530.997 546.538 526.625C546.538 522.941 547.215 519.851 548.566 517.347C549.92 514.844 551.76 512.83 554.09 511.306C556.42 509.781 559.069 508.629 562.031 507.851C565.024 507.076 568.16 506.528 571.441 506.212C575.295 505.809 578.403 505.434 580.76 505.09C583.121 504.715 584.833 504.17 585.896 503.451C586.962 502.729 587.493 501.667 587.493 500.257V499.997C587.493 497.264 586.632 495.149 584.903 493.653C583.208 492.156 580.792 491.41 577.653 491.41C574.347 491.41 571.712 492.142 569.757 493.611C567.798 495.049 566.507 496.861 565.871 499.049L548.868 497.667C549.733 493.639 551.43 490.156 553.962 487.222C556.493 484.26 559.76 481.986 563.757 480.406C567.785 478.795 572.448 477.99 577.739 477.99C581.423 477.99 584.948 478.42 588.312 479.281C591.708 480.146 594.715 481.483 597.333 483.295C599.979 485.108 602.066 487.438 603.59 490.288C605.114 493.108 605.878 496.486 605.878 500.431V545.139H588.444V535.948H587.923C586.861 538.017 585.437 539.844 583.653 541.427C581.868 542.983 579.726 544.205 577.222 545.097C574.719 545.958 571.826 546.389 568.548 546.389ZM573.812 533.701C576.517 533.701 578.906 533.17 580.976 532.104C583.048 531.014 584.673 529.545 585.854 527.705C587.035 525.861 587.621 523.778 587.621 521.444V514.413C587.048 514.785 586.257 515.132 585.25 515.448C584.271 515.736 583.163 516.007 581.927 516.267C580.691 516.497 579.451 516.712 578.215 516.913C576.979 517.087 575.858 517.247 574.851 517.389C572.691 517.705 570.805 518.208 569.194 518.899C567.583 519.59 566.333 520.524 565.441 521.705C564.548 522.858 564.104 524.295 564.104 526.021C564.104 528.524 565.01 530.438 566.823 531.76C568.663 533.056 570.993 533.701 573.812 533.701ZM655.399 478.851V492.66H615.479V478.851H655.399ZM624.542 462.969H642.927V524.771C642.927 526.465 643.187 527.792 643.705 528.74C644.222 529.66 644.941 530.309 645.861 530.681C646.812 531.056 647.906 531.243 649.142 531.243C650.007 531.243 650.868 531.17 651.733 531.028C652.594 530.854 653.257 530.726 653.715 530.639L656.607 544.32C655.687 544.608 654.392 544.938 652.726 545.313C651.055 545.715 649.028 545.958 646.639 546.045C642.208 546.219 638.323 545.629 634.986 544.274C631.677 542.924 629.104 540.823 627.264 537.976C625.42 535.125 624.514 531.531 624.542 527.188V462.969ZM687.184 506.816V545.139H668.798V456.754H686.667V490.545H687.444C688.941 486.632 691.357 483.57 694.694 481.354C698.031 479.111 702.219 477.99 707.253 477.99C711.854 477.99 715.868 478.997 719.292 481.01C722.746 482.993 725.42 485.858 727.319 489.597C729.246 493.309 730.198 497.753 730.167 502.931V545.139H711.785V506.212C711.812 502.125 710.778 498.948 708.677 496.674C706.604 494.403 703.698 493.264 699.958 493.264C697.455 493.264 695.239 493.799 693.312 494.861C691.413 495.927 689.917 497.479 688.823 499.524C687.76 501.538 687.212 503.969 687.184 506.816ZM774.844 546.434C768.028 546.434 762.156 545.052 757.236 542.292C752.347 539.5 748.576 535.559 745.93 530.465C743.285 525.344 741.962 519.288 741.962 512.299C741.962 505.479 743.285 499.493 745.93 494.344C748.576 489.194 752.302 485.181 757.107 482.302C761.941 479.427 767.611 477.99 774.111 477.99C778.486 477.99 782.555 478.695 786.326 480.104C790.121 481.483 793.43 483.57 796.25 486.361C799.101 489.149 801.316 492.66 802.896 496.889C804.479 501.09 805.271 506.01 805.271 511.649V516.698H749.298V505.306H787.965C787.965 502.66 787.389 500.313 786.239 498.271C785.087 496.229 783.489 494.632 781.448 493.483C779.434 492.302 777.09 491.712 774.413 491.712C771.621 491.712 769.149 492.358 766.989 493.653C764.861 494.92 763.194 496.632 761.986 498.788C760.778 500.917 760.16 503.292 760.128 505.91V516.743C760.128 520.021 760.732 522.858 761.941 525.243C763.18 527.632 764.92 529.472 767.163 530.767C769.406 532.063 772.069 532.708 775.146 532.708C777.191 532.708 779.059 532.424 780.757 531.847C782.455 531.271 783.91 530.41 785.118 529.257C786.326 528.108 787.246 526.698 787.878 525.028L804.882 526.149C804.017 530.236 802.25 533.802 799.573 536.854C796.927 539.875 793.503 542.233 789.302 543.931C785.132 545.601 780.312 546.434 774.844 546.434ZM817.267 545.139V478.851H835.09V490.417H835.781C836.989 486.302 839.017 483.194 841.868 481.094C844.715 478.965 847.996 477.903 851.708 477.903C852.628 477.903 853.621 477.958 854.684 478.073C855.75 478.191 856.684 478.347 857.489 478.549V494.861C856.625 494.604 855.434 494.372 853.906 494.17C852.382 493.969 850.986 493.868 849.722 493.868C847.017 493.868 844.601 494.458 842.472 495.639C840.371 496.788 838.701 498.399 837.465 500.472C836.257 502.545 835.653 504.931 835.653 507.635V545.139H817.267Z" fill="white"/>
<path d="M459.701 123.578C459.701 138.197 447.99 149.934 433.33 149.934C419.493 149.934 406.983 138.197 406.983 123.578C406.983 108.959 418.767 97.2222 433.33 97.2222C447.99 97.2222 459.701 108.959 459.701 123.578Z" fill="white"/>
<path d="M592.194 123.578C592.194 138.197 580.41 149.934 565.847 149.934C551.187 149.934 539.476 138.197 539.476 123.578C539.476 108.959 551.187 97.2222 565.847 97.2222C580.41 97.2222 592.194 108.959 592.194 123.578Z" fill="white"/>
<path d="M569.142 209.729C552.01 230.32 526.726 242.177 499.958 242.177C473.191 242.177 447.899 230.441 430.743 209.743C423.76 201.302 411.295 200.274 402.913 207.17C394.535 214.177 393.465 226.611 400.385 235.014C425.017 264.663 461.42 281.736 499.958 281.736C538.496 281.736 574.857 264.663 599.535 235.014C606.614 226.677 605.417 214.215 597.042 207.215C588.663 200.257 576.142 201.326 569.142 209.729Z" fill="white"/>
</svg>
