<svg width="70" height="70" viewBox="0 0 70 70" fill="none" xmlns="http://www.w3.org/2000/svg">
<path d="M34.9999 5.83331C18.8999 5.83331 5.83325 18.9 5.83325 35C5.83325 51.1 18.8999 64.1666 34.9999 64.1666C51.0999 64.1666 64.1666 51.1 64.1666 35C64.1666 18.9 51.0999 5.83331 34.9999 5.83331ZM46.6666 37.9166H37.9166V46.6666C37.9166 48.2708 36.6041 49.5833 34.9999 49.5833C33.3958 49.5833 32.0833 48.2708 32.0833 46.6666V37.9166H23.3333C21.7291 37.9166 20.4166 36.6041 20.4166 35C20.4166 33.3958 21.7291 32.0833 23.3333 32.0833H32.0833V23.3333C32.0833 21.7291 33.3958 20.4166 34.9999 20.4166C36.6041 20.4166 37.9166 21.7291 37.9166 23.3333V32.0833H46.6666C48.2707 32.0833 49.5832 33.3958 49.5832 35C49.5832 36.6041 48.2707 37.9166 46.6666 37.9166Z" fill="#CACACA"/>
</svg>
