<svg width="current" height="current" viewBox="0 0 70 70" fill="none" xmlns="http://www.w3.org/2000/svg">
<path d="M35 14.1666C23.5 14.1666 14.1666 23.5 14.1666 35C14.1666 46.5 23.5 55.8333 35 55.8333C46.5 55.8333 55.8333 46.5 55.8333 35C55.8333 23.5 46.5 14.1666 35 14.1666ZM43.3333 37.0833H37.0833V43.3333C37.0833 44.4791 36.1458 45.4166 35 45.4166C33.8541 45.4166 32.9166 44.4791 32.9166 43.3333V37.0833H26.6666C25.5208 37.0833 24.5833 36.1458 24.5833 35C24.5833 33.8541 25.5208 32.9166 26.6666 32.9166H32.9166V26.6666C32.9166 25.5208 33.8541 24.5833 35 24.5833C36.1458 24.5833 37.0833 25.5208 37.0833 26.6666V32.9166H43.3333C44.4791 32.9166 45.4166 33.8541 45.4166 35C45.4166 36.1458 44.4791 37.0833 43.3333 37.0833Z" fill="white"/>
</svg>
