<svg width="current" height="current" viewBox="0 0 70 70" fill="none" xmlns="http://www.w3.org/2000/svg">
<path d="M22.4999 30.8334C20.2083 30.8334 18.3333 32.7084 18.3333 35C18.3333 37.2917 20.2083 39.1667 22.4999 39.1667C24.7916 39.1667 26.6666 37.2917 26.6666 35C26.6666 32.7084 24.7916 30.8334 22.4999 30.8334ZM47.4999 30.8334C45.2083 30.8334 43.3333 32.7084 43.3333 35C43.3333 37.2917 45.2083 39.1667 47.4999 39.1667C49.7916 39.1667 51.6666 37.2917 51.6666 35C51.6666 32.7084 49.7916 30.8334 47.4999 30.8334ZM34.9999 30.8334C32.7083 30.8334 30.8333 32.7084 30.8333 35C30.8333 37.2917 32.7083 39.1667 34.9999 39.1667C37.2916 39.1667 39.1666 37.2917 39.1666 35C39.1666 32.7084 37.2916 30.8334 34.9999 30.8334Z" fill="white"/>
</svg>
