<?xml version="1.0" standalone="no"?>
<!DOCTYPE svg PUBLIC "-//W3C//DTD SVG 20010904//EN"
 "http://www.w3.org/TR/2001/REC-SVG-20010904/DTD/svg10.dtd">
<svg version="1.0" xmlns="http://www.w3.org/2000/svg"
 width="366.000000pt" height="366.000000pt" viewBox="0 0 366.000000 366.000000"
 preserveAspectRatio="xMidYMid meet">
<metadata>
Created by potrace 1.14, written by Peter Selinger 2001-2017
</metadata>
<g transform="translate(0.000000,366.000000) scale(0.100000,-0.100000)"
fill="#000000" stroke="none">
<path d="M1658 3045 c-3 -3 -48 -17 -99 -31 -188 -50 -358 -142 -492 -264 -69
-64 -182 -201 -210 -255 -24 -48 -47 -63 -123 -78 -306 -64 -559 -280 -670
-573 -14 -38 -28 -82 -31 -99 -3 -16 -11 -45 -19 -64 -16 -39 -20 -280 -5
-309 6 -9 20 -51 31 -92 44 -154 147 -320 261 -426 103 -94 223 -160 391 -214
l92 -30 1117 0 1117 0 89 31 c118 42 190 81 271 148 115 97 210 241 247 378 9
32 20 66 25 75 17 30 12 237 -6 288 -9 25 -18 54 -20 64 -6 32 -70 162 -103
210 -49 71 -159 174 -232 217 -78 46 -185 86 -256 95 -55 7 -93 27 -93 50 0
29 -51 169 -90 247 -56 110 -108 183 -201 281 -134 142 -302 246 -484 301 -50
15 -111 33 -137 41 -46 14 -358 21 -370 9z"/>
</g>
</svg>
