<svg width="current" height="current" viewBox="0 0 100 100" fill="none" xmlns="http://www.w3.org/2000/svg">
<path d="M91.6667 21.5834L44.125 69.1667L26.4584 51.5L32.3334 45.625L44.125 57.4167L85.7917 15.75L91.6667 21.5834ZM82.4584 42.5834C83 44.9584 83.3334 47.4584 83.3334 50C83.3334 68.4167 68.4167 83.3334 50 83.3334C31.5834 83.3334 16.6667 68.4167 16.6667 50C16.6667 31.5834 31.5834 16.6667 50 16.6667C56.5834 16.6667 62.6667 18.5834 67.8334 21.875L73.8334 15.875C67.0834 11.125 58.875 8.33337 50 8.33337C27 8.33337 8.33337 27 8.33337 50C8.33337 73 27 91.6667 50 91.6667C73 91.6667 91.6667 73 91.6667 50C91.6667 45.0417 90.75 40.2917 89.1667 35.875L82.4584 42.5834Z" fill="#36FD32"/>
</svg>
