<svg width="50" height="50" viewBox="0 0 50 50" fill="none" xmlns="http://www.w3.org/2000/svg">
<path d="M25 5C31.0667 5 36.1167 9.46121 37.2667 15.4037C41.5833 15.7138 45 19.3999 45 23.9472C45 28.6085 41.4109 32.4087 36.9349 32.5552L32.2123 45L28.3333 43.4277L32.4576 32.5596H26.9332L22.2123 45L18.3333 43.4277L22.4576 32.5596H16.9332L12.2123 45L8.3333 43.4277L12.5741 32.2525C8.22694 31.1301 5 27.0617 5 22.2247C5 16.9023 8.9 12.51 13.9167 11.9588C16 7.82486 20.1833 5 25 5Z" fill="#2784DA"/>
</svg>
