<svg width="32" height="32" viewBox="0 0 32 32" fill="none" xmlns="http://www.w3.org/2000/svg">
<path d="M16.0022 3.33334C15.3889 3.33334 14.7622 3.38668 14.1355 3.52001C10.4555 4.22668 7.52221 7.20001 6.82888 10.88C6.18888 14.36 7.46888 17.56 9.78888 19.6267C10.3622 20.1333 10.6689 20.84 10.6689 21.5867V24.6667C10.6689 26.1333 11.8689 27.3333 13.3355 27.3333H13.7089C14.1755 28.1333 15.0155 28.6667 16.0022 28.6667C16.9889 28.6667 17.8422 28.1333 18.2955 27.3333H18.6689C20.1355 27.3333 21.3355 26.1333 21.3355 24.6667V21.5867C21.3355 20.8533 21.6289 20.1333 22.1889 19.64C24.1222 17.9333 25.3355 15.44 25.3355 12.6667C25.3355 7.50668 21.1622 3.33334 16.0022 3.33334ZM18.6689 22H13.3355V20.6667H18.6689V22ZM13.3355 24.6667V23.3333H18.6689V24.6667H13.3355ZM20.4155 17.6533C20.2955 17.76 20.2022 17.8933 20.0955 18H11.8955C11.7889 17.88 11.6955 17.7467 11.5755 17.64C9.81555 16.0667 9.02888 13.72 9.45554 11.3733C9.93554 8.78668 12.0689 6.64001 14.6422 6.13334C15.0955 6.04001 15.5489 6.00001 16.0022 6.00001C19.6822 6.00001 22.6689 8.98668 22.6689 12.6667C22.6689 14.5733 21.8555 16.3867 20.4155 17.6533Z" fill="black"/>
<path d="M16.6689 14H15.3355V18H16.6689V14Z" fill="black"/>
<path d="M13.8415 11.165L12.8987 12.1078L15.7271 14.9362L16.6699 13.9934L13.8415 11.165Z" fill="black"/>
<path d="M15.3369 14.0069L16.2797 14.9497L19.1081 12.1213L18.1653 11.1785L15.3369 14.0069Z" fill="black"/>
</svg>
