<svg width="40px" height="40px" viewBox="0 0 50 50" fill="none" xmlns="http://www.w3.org/2000/svg">
<path d="M15.4727 12.8356L12.2 9.56621L9.63636 12.1416L12.8909 15.411L15.4727 12.8356ZM10.4545 23.1735H5V26.8265H10.4545V23.1735ZM26.8182 5H23.1818V10.3881H26.8182V5ZM40.3636 12.1416L37.8 9.56621L34.5455 12.8356L37.1091 15.411L40.3636 12.1416ZM34.5273 37.1644L37.7818 40.4521L40.3455 37.8767L37.0727 34.6073L34.5273 37.1644ZM39.5455 23.1735V26.8265H45V23.1735H39.5455ZM25 14.0411C18.9818 14.0411 14.0909 18.9543 14.0909 25C14.0909 31.0457 18.9818 35.9589 25 35.9589C31.0182 35.9589 35.9091 31.0457 35.9091 25C35.9091 18.9543 31.0182 14.0411 25 14.0411ZM23.1818 45H26.8182V39.6119H23.1818V45ZM9.63636 37.8584L12.2 40.4338L15.4545 37.1461L12.8909 34.5708L9.63636 37.8584Z" fill="current"/>
</svg>
